<svg width="25" height="24" viewBox="0 0 25 24" fill="none" xmlns="http://www.w3.org/2000/svg">
<path d="M15.2389 5.77981L4.99691 16.0198C4.69238 16.3242 4.49423 16.7188 4.43191 17.1448L3.87891 20.9188L7.65391 20.3658C8.08007 20.3032 8.47464 20.1047 8.77891 19.7998L19.0189 9.55981M15.2389 5.77981L17.4679 3.54981C17.6165 3.4012 17.7929 3.28331 17.987 3.20288C18.1812 3.12245 18.3893 3.08105 18.5994 3.08105C18.8096 3.08105 19.0176 3.12245 19.2118 3.20288C19.4059 3.28331 19.5823 3.4012 19.7309 3.54981L21.2489 5.06781C21.3975 5.21639 21.5154 5.39279 21.5958 5.58694C21.6763 5.78108 21.7177 5.98917 21.7177 6.19931C21.7177 6.40946 21.6763 6.61755 21.5958 6.81169C21.5154 7.00584 21.3975 7.18223 21.2489 7.33081L19.0189 9.55981M15.2389 5.77981L19.0189 9.55981" stroke="black" stroke-width="1.5" stroke-linecap="round" stroke-linejoin="round"/>
</svg>
